<svg xmlns="http://www.w3.org/2000/svg" viewBox="0 0 180 240">
<defs><linearGradient id="rot" x1="0" y1="0" x2="1" y2="1"><stop stop-color="#a6b766"/><stop offset=".5" stop-color="#56682b"/><stop offset="1" stop-color="#222f12"/></linearGradient><linearGradient id="bronze"><stop stop-color="#d6a342"/><stop offset=".5" stop-color="#87500d"/><stop offset="1" stop-color="#452706"/></linearGradient></defs>
<g stroke="#10140b" stroke-width="5" stroke-linejoin="round" stroke-linecap="round"><ellipse cx="90" cy="211" rx="62" ry="19" fill="url(#bronze)"/><path d="M43 195Q52 153 72 123Q88 100 73 70L87 79Q101 45 133 48L124 63Q143 76 137 101L126 126 139 145 122 155 108 139Q92 154 89 195Z" fill="url(#rot)"/><path d="M89 80l18-12-4 25Z" fill="#748640"/><path d="M119 82l-15 7 13 10 14-8Z" fill="#11170b"/><circle cx="119" cy="88" r="4" fill="#d6db65" stroke="none"/><path d="M123 112l13 4M89 119q18 8 34 5M71 126q-20 18-12 46" fill="none"/><path d="M58 173l-13-7m19-9-14-5" stroke="#344b1d" stroke-width="7"/><path d="M91 55l-15-12m24 9-5-18m17 18 8-17" stroke="#33451e"/></g></svg>
