<svg xmlns="http://www.w3.org/2000/svg" viewBox="0 0 180 240">
<defs><linearGradient id="rot" x1="0" y1="0" x2="1" y2="1"><stop stop-color="#a6b766"/><stop offset=".5" stop-color="#56682b"/><stop offset="1" stop-color="#222f12"/></linearGradient><linearGradient id="bronze"><stop stop-color="#d6a342"/><stop offset=".5" stop-color="#87500d"/><stop offset="1" stop-color="#452706"/></linearGradient></defs>
<g stroke="#10140b" stroke-width="5" stroke-linejoin="round"><ellipse cx="90" cy="211" rx="65" ry="19" fill="url(#bronze)"/><path d="M35 195L48 86h84l13 109Z" fill="url(#rot)"/><path d="M40 88V48h24v18h18V48h18v18h18V48h24v40Z" fill="url(#rot)"/><path d="M58 117h64M51 154h78" fill="none" stroke="#394821" stroke-width="4"/><path d="M76 121q14-15 28 0v22q-14 16-28 0Z" fill="#12170d"/><circle cx="84" cy="130" r="4" fill="#d6db65" stroke="none"/><circle cx="96" cy="130" r="4" fill="#d6db65" stroke="none"/><path d="M84 140h12"/><path d="M57 191q-9-23 9-39m58 39q10-24-8-43" fill="none" stroke="#344b1d" stroke-width="8"/><path d="M63 171l-14-8m72 5 13-10" stroke="#7c913e" stroke-width="4"/><path d="M110 48l-9 17 12 11-10 20" fill="none" stroke="#202a15" stroke-width="4"/></g></svg>
