<svg xmlns="http://www.w3.org/2000/svg" viewBox="0 0 180 240">
<defs><linearGradient id="bone" x1="0" y1="0" x2="1" y2="1"><stop stop-color="#fffdf4"/><stop offset=".5" stop-color="#ddd7c9"/><stop offset="1" stop-color="#918f83"/></linearGradient><linearGradient id="gold"><stop stop-color="#f5d477"/><stop offset=".5" stop-color="#b97917"/><stop offset="1" stop-color="#6c3b08"/></linearGradient></defs>
<g stroke="#171915" stroke-width="5" stroke-linejoin="round"><ellipse cx="90" cy="211" rx="62" ry="19" fill="url(#gold)"/><path d="M43 195Q51 145 67 121h46q17 26 24 74Z" fill="url(#bone)"/><path d="M61 75L90 31l29 44-10 42H71Z" fill="url(#bone)"/><path d="M73 80q17-22 34 0v20q-17 22-34 0Z" fill="#cbc6b9"/><path d="M78 83l10-4-2 12-10 2zm24 0-10-4 2 12 10 2z" fill="#24271f" stroke-width="3"/><path d="M90 91l-6 10h12zm-10 15q10 9 20 0" fill="#34382c"/><path d="M90 40l-9 25 13 12-11 20" fill="none" stroke-width="4"/><circle cx="90" cy="138" r="15" fill="url(#gold)"/><path d="M90 123v30m-17-15h34M61 188q-13-24 4-45m54 46q15-23-3-43" fill="none"/><path d="M58 165l-13-8m76 8 13-9" stroke="#8b9560" stroke-width="6"/></g></svg>
